<svg width="946" height="70" viewBox="0 0 946 70" fill="none" xmlns="http://www.w3.org/2000/svg">
<path d="M36.689 69.1736L941.257 -41.8933L945.888 -4.17659L41.32 106.89L36.689 69.1736Z" fill="#FCC344"/>
<path d="M31.0989 82.0146L31.678 86.7312C32.1372 90.4711 34.4737 91.9735 39.1188 91.4032C40.024 91.292 41.7454 90.9356 42.7225 90.6222L43.4508 96.5536L46.5714 96.1705L44.6293 80.3532L41.5087 80.7364L42.3774 87.8113C41.0756 88.2371 39.6104 88.5137 38.6575 88.6307C36.1801 88.9349 35.0384 88.3013 34.7898 86.2765L34.2194 81.6314L31.0989 82.0146Z" fill="black"/>
<path d="M57.5203 91.3441C57.0572 92.1022 56.2586 92.4905 55.3058 92.6075C53.805 92.7917 52.5087 92.0804 52.0323 90.7606L60.7508 89.6901C60.7755 89.3002 60.7166 89.0173 60.6698 88.6361C60.2603 85.3012 57.5623 83.021 54.0606 83.451C50.5351 83.8838 48.3736 86.7607 48.7889 90.1433C49.2101 93.5735 52.1195 95.8036 55.6451 95.3707C58.0986 95.0694 60.1594 93.3414 60.76 90.9464L57.5203 91.3441ZM51.8288 88.5127C51.8585 87.1791 53.0187 86.1903 54.3765 86.0236C55.7819 85.8511 56.9771 86.5264 57.3315 87.837L51.8288 88.5127Z" fill="black"/>
<path d="M75.5606 86.8561C75.1804 83.7594 72.6855 81.1641 69.0409 81.6116C67.7784 81.7666 66.5418 82.3295 65.8731 83.1854L65.7678 82.3278L62.7663 82.6964L64.7523 98.8709L67.7538 98.5024L67.0489 92.7615C67.9048 93.4302 69.2437 93.701 70.5063 93.546C74.1509 93.0985 75.9409 89.9529 75.5606 86.8561ZM72.5592 87.2247C72.7698 88.9398 71.7153 90.5926 69.9288 90.812C68.3327 91.0079 66.6051 90.132 66.3419 87.9881C66.0786 85.8442 67.546 84.6001 69.142 84.4041C70.9286 84.1847 72.3457 85.4857 72.5592 87.2247Z" fill="black"/>
<path d="M86.111 79.83L86.6375 84.1178L81.1825 84.7876L80.656 80.4998L77.6545 80.8683L79.0438 92.1833L82.0453 91.8148L81.5042 87.4079L86.9592 86.7381L87.5003 91.145L90.5018 90.7765L89.1125 79.4615L86.111 79.83Z" fill="black"/>
<path d="M97.3166 78.1398C94.7677 78.4527 92.4453 80.0195 92.1414 82.8617L95.2382 82.4814C95.5232 81.455 96.4531 80.954 97.7156 80.799C99.1449 80.6235 100.424 80.9984 100.585 82.3085L97.7979 82.6507C95.1537 82.9754 92.5526 84.0444 92.9036 86.9029C93.2049 89.3565 95.042 90.5334 97.8291 90.1911C99.2822 90.0127 100.623 89.5096 101.354 88.5735L101.459 89.431L104.461 89.0625L103.598 82.0353C103.238 79.1053 100.723 77.7215 97.3166 78.1398ZM100.918 85.0241C101.106 86.5487 99.749 87.5132 98.1292 87.7121C96.7952 87.8759 96.0045 87.3443 95.908 86.5582C95.7939 85.6292 96.6197 85.0683 98.0728 84.8899L100.86 84.5477L100.918 85.0241Z" fill="black"/>
<path d="M117.733 87.4329L116.344 76.1179L110.126 76.8813C107.006 77.2645 105.828 79.2951 106.095 81.4628C106.293 83.0826 107.231 84.4183 109.001 84.8538L106.346 88.831L110.229 88.3543L112.639 84.7456L114.331 84.538L114.731 87.8015L117.733 87.4329ZM114.009 81.9176L110.888 82.3008C109.864 82.4266 109.204 81.9756 109.096 81.0943C108.982 80.1652 109.519 79.6157 110.543 79.4899L113.664 79.1068L114.009 81.9176Z" fill="black"/>
<path d="M124.785 75.0814L126.174 86.3965L129.176 86.0279L128.108 77.3332L133.396 76.6839L134.464 85.3786L137.465 85.0101L136.076 73.695L124.785 75.0814Z" fill="black"/>
<path d="M150.952 83.3541L149.563 72.0391L143.346 72.8025C140.225 73.1856 139.048 75.2163 139.314 77.384C139.513 79.0038 140.45 80.3395 142.221 80.775L139.566 84.7522L143.448 84.2755L145.859 80.6668L147.55 80.4592L147.951 83.7226L150.952 83.3541ZM147.228 77.8388L144.108 78.222C143.083 78.3478 142.423 77.8968 142.315 77.0154C142.201 76.0864 142.738 75.5369 143.763 75.4111L146.883 75.0279L147.228 77.8388Z" fill="black"/>
<path d="M163.174 70.3678L151.716 71.7747L152.038 74.395L156.254 73.8773L157.322 82.572L160.324 82.2035L159.256 73.5088L163.496 72.9881L163.174 70.3678Z" fill="black"/>
<path d="M173.765 69.0674L174.292 73.3552L168.837 74.025L168.31 69.7372L165.309 70.1057L166.698 81.4208L169.7 81.0522L169.158 76.6453L174.613 75.9755L175.155 80.3824L178.156 80.0139L176.767 68.6989L173.765 69.0674Z" fill="black"/>
<path d="M188.653 67.2394L184.079 75.0793L183.198 67.9092L180.197 68.2777L181.586 79.5927L184.588 79.2242L189.162 71.3842L190.043 78.5544L193.044 78.1859L191.655 66.8708L188.653 67.2394Z" fill="black"/>
<path d="M196.474 77.7647L206.718 76.507L207.086 79.5084L209.921 79.1604L209.231 73.5386L207.325 73.7726L206.257 65.0779L203.256 65.4464L204.323 74.1411L199.154 74.7758L198.087 66.0811L195.085 66.4497L196.474 77.7647Z" fill="black"/>
<path d="M215.515 63.6269C212.966 63.9398 210.644 65.5065 210.34 68.3487L213.436 67.9685C213.722 66.9421 214.651 66.4411 215.914 66.286C217.343 66.1106 218.622 66.4854 218.783 67.7956L215.996 68.1378C213.352 68.4625 210.751 69.5314 211.102 72.39C211.403 74.8436 213.24 76.0204 216.027 75.6782C217.48 75.4998 218.821 74.9967 219.552 74.0606L219.658 74.9181L222.659 74.5496L221.796 67.5224C221.437 64.5924 218.921 63.2086 215.515 63.6269ZM219.117 70.5112C219.304 72.0358 217.947 73.0003 216.327 73.1992C214.994 73.363 214.203 72.8314 214.106 72.0453C213.992 71.1162 214.818 70.5554 216.271 70.377L219.058 70.0348L219.117 70.5112Z" fill="black"/>
<path d="M259.385 53.9846L259.964 58.7012C260.423 62.4411 262.759 63.9436 267.404 63.3732C268.31 63.2621 270.031 62.9056 271.008 62.5922L271.736 68.5237L274.857 68.1405L272.915 52.3233L269.794 52.7065L270.663 59.7813C269.361 60.2072 267.896 60.4838 266.943 60.6008C264.466 60.905 263.324 60.2714 263.075 58.2466L262.505 53.6015L259.385 53.9846Z" fill="black"/>
<path d="M285.806 63.3142C285.343 64.0723 284.544 64.4605 283.591 64.5775C282.091 64.7618 280.794 64.0504 280.318 62.7307L289.036 61.6602C289.061 61.2703 289.002 60.9873 288.955 60.6062C288.546 57.2712 285.848 54.991 282.346 55.421C278.821 55.8539 276.659 58.7307 277.075 62.1133C277.496 65.5436 280.405 67.7736 283.931 67.3408C286.384 67.0395 288.445 65.3115 289.046 62.9164L285.806 63.3142ZM280.114 60.4827C280.144 59.1492 281.304 58.1604 282.662 57.9937C284.068 57.8211 285.263 58.4965 285.617 59.8071L280.114 60.4827Z" fill="black"/>
<path d="M303.846 58.8262C303.466 55.7294 300.971 53.1341 297.327 53.5816C296.064 53.7367 294.827 54.2996 294.159 55.1554L294.053 54.2979L291.052 54.6664L293.038 70.8409L296.039 70.4724L295.335 64.7315C296.19 65.4002 297.529 65.671 298.792 65.516C302.436 65.0685 304.227 61.9229 303.846 58.8262ZM300.845 59.1947C301.055 60.9098 300.001 62.5627 298.214 62.782C296.618 62.978 294.891 62.102 294.628 59.9581C294.364 57.8142 295.832 56.5701 297.428 56.3741C299.214 56.1548 300.631 57.4558 300.845 59.1947Z" fill="black"/>
<path d="M314.397 51.8L314.923 56.0878L309.468 56.7576L308.942 52.4698L305.94 52.8384L307.329 64.1534L310.331 63.7849L309.79 59.378L315.245 58.7082L315.786 63.1151L318.787 62.7465L317.398 51.4315L314.397 51.8Z" fill="black"/>
<path d="M325.602 50.1098C323.053 50.4228 320.731 51.9895 320.427 54.8317L323.524 54.4515C323.809 53.4251 324.739 52.924 326.001 52.769C327.43 52.5935 328.71 52.9684 328.871 54.2786L326.084 54.6208C323.439 54.9455 320.838 56.0144 321.189 58.873C321.491 61.3265 323.328 62.5034 326.115 62.1612C327.568 61.9828 328.908 61.4797 329.64 60.5435L329.745 61.4011L332.747 61.0326L331.884 54.0053C331.524 51.0753 329.009 49.6916 325.602 50.1098ZM329.204 56.9942C329.391 58.5187 328.035 59.4833 326.415 59.6822C325.081 59.8459 324.29 59.3143 324.194 58.5282C324.08 57.5992 324.905 57.0384 326.358 56.86L329.146 56.5178L329.204 56.9942Z" fill="black"/>
<path d="M346.018 59.403L344.629 48.088L338.412 48.8513C335.291 49.2345 334.114 51.2651 334.38 53.4328C334.579 55.0527 335.517 56.3883 337.287 56.8238L334.632 60.8011L338.515 60.3243L340.925 56.7157L342.616 56.508L343.017 59.7715L346.018 59.403ZM342.295 53.8877L339.174 54.2709C338.15 54.3966 337.49 53.9457 337.382 53.0643C337.268 52.1353 337.805 51.5857 338.829 51.46L341.949 51.0768L342.295 53.8877Z" fill="black"/>
<path d="M353.071 47.0515L354.46 58.3665L357.461 57.998L356.394 49.3033L361.682 48.6539L362.75 57.3487L365.751 56.9801L364.362 45.6651L353.071 47.0515Z" fill="black"/>
<path d="M379.238 55.3242L377.848 44.0091L371.631 44.7725C368.511 45.1557 367.333 47.1863 367.599 49.354C367.798 50.9739 368.736 52.3095 370.506 52.745L367.851 56.7223L371.734 56.2455L374.144 52.6369L375.836 52.4292L376.236 55.6927L379.238 55.3242ZM375.514 49.8089L372.393 50.192C371.369 50.3178 370.709 49.8669 370.601 48.9855C370.487 48.0565 371.024 47.5069 372.048 47.3812L375.169 46.998L375.514 49.8089Z" fill="black"/>
<path d="M391.46 42.3379L380.002 43.7447L380.324 46.365L384.54 45.8473L385.608 54.542L388.609 54.1735L387.542 45.4788L391.782 44.9582L391.46 42.3379Z" fill="black"/>
<path d="M402.051 41.0375L402.577 45.3253L397.122 45.995L396.596 41.7073L393.594 42.0758L394.984 53.3908L397.985 53.0223L397.444 48.6154L402.899 47.9456L403.44 52.3525L406.442 51.9839L405.052 40.6689L402.051 41.0375Z" fill="black"/>
<path d="M416.939 39.2094L412.364 47.0494L411.484 39.8792L408.483 40.2477L409.872 51.5628L412.873 51.1942L417.448 43.3543L418.328 50.5244L421.33 50.1559L419.941 38.8409L416.939 39.2094Z" fill="black"/>
<path d="M424.76 49.7347L435.003 48.477L435.372 51.4785L438.206 51.1304L437.516 45.5087L435.61 45.7426L434.543 37.0479L431.541 37.4165L432.609 46.1112L427.44 46.7459L426.372 38.0512L423.371 38.4197L424.76 49.7347Z" fill="black"/>
<path d="M443.8 35.5969C441.252 35.9099 438.929 37.4766 438.625 40.3188L441.722 39.9386C442.007 38.9122 442.937 38.4111 444.2 38.2561C445.629 38.0806 446.908 38.4555 447.069 39.7657L444.282 40.1079C441.638 40.4325 439.037 41.5015 439.388 44.36C439.689 46.8136 441.526 47.9905 444.313 47.6483C445.766 47.4699 447.107 46.9667 447.838 46.0306L447.943 46.8882L450.945 46.5196L450.082 39.4924C449.722 36.5624 447.207 35.1787 443.8 35.5969ZM447.402 42.4813C447.59 44.0058 446.233 44.9703 444.613 45.1692C443.279 45.333 442.488 44.8014 442.392 44.0153C442.278 43.0863 443.104 42.5255 444.557 42.3471L447.344 42.0048L447.402 42.4813Z" fill="black"/>
<path d="M487.67 25.9547L488.249 30.6712C488.708 34.4112 491.045 35.9136 495.69 35.3433C496.595 35.2321 498.317 34.8757 499.294 34.5623L500.022 40.4937L503.143 40.1106L501.201 24.2933L498.08 24.6765L498.949 31.7514C497.647 32.1772 496.182 32.4538 495.229 32.5708C492.751 32.875 491.61 32.2414 491.361 30.2166L490.791 25.5715L487.67 25.9547Z" fill="black"/>
<path d="M514.092 35.2842C513.628 36.0423 512.83 36.4306 511.877 36.5476C510.376 36.7318 509.08 36.0205 508.604 34.7007L517.322 33.6302C517.347 33.2403 517.288 32.9574 517.241 32.5762C516.832 29.2413 514.134 26.9611 510.632 27.391C507.106 27.8239 504.945 30.7008 505.36 34.0834C505.781 37.5136 508.691 39.7437 512.216 39.3108C514.67 39.0095 516.731 37.2815 517.331 34.8865L514.092 35.2842ZM508.4 32.4528C508.43 31.1192 509.59 30.1304 510.948 29.9637C512.353 29.7912 513.548 30.4665 513.903 31.7771L508.4 32.4528Z" fill="black"/>
<path d="M532.132 30.7962C531.752 27.6995 529.257 25.1042 525.612 25.5517C524.35 25.7067 523.113 26.2696 522.444 27.1255L522.339 26.2679L519.338 26.6365L521.324 42.811L524.325 42.4425L523.62 36.7016C524.476 37.3703 525.815 37.6411 527.078 37.4861C530.722 37.0386 532.512 33.893 532.132 30.7962ZM529.13 31.1648C529.341 32.8799 528.287 34.5327 526.5 34.7521C524.904 34.948 523.176 34.0721 522.913 31.9282C522.65 29.7843 524.117 28.5402 525.713 28.3442C527.5 28.1248 528.917 29.4258 529.13 31.1648Z" fill="black"/>
<path d="M542.682 23.7701L543.209 28.0579L537.754 28.7277L537.227 24.4399L534.226 24.8084L535.615 36.1234L538.617 35.7549L538.075 31.348L543.53 30.6782L544.072 35.0851L547.073 34.7166L545.684 23.4016L542.682 23.7701Z" fill="black"/>
<path d="M553.888 22.0799C551.339 22.3928 549.017 23.9595 548.713 26.8018L551.809 26.4215C552.094 25.3952 553.024 24.8941 554.287 24.7391C555.716 24.5636 556.995 24.9385 557.156 26.2486L554.369 26.5908C551.725 26.9155 549.124 27.9845 549.475 30.843C549.776 33.2966 551.613 34.4735 554.4 34.1313C555.853 33.9528 557.194 33.4497 557.925 32.5136L558.031 33.3711L561.032 33.0026L560.169 25.9754C559.81 23.0454 557.294 21.6616 553.888 22.0799ZM557.49 28.9642C557.677 30.4888 556.32 31.4533 554.7 31.6522C553.366 31.816 552.576 31.2844 552.479 30.4983C552.365 29.5693 553.191 29.0084 554.644 28.83L557.431 28.4878L557.49 28.9642Z" fill="black"/>
<path d="M574.304 31.373L572.915 20.058L566.698 20.8214C563.577 21.2046 562.4 23.2352 562.666 25.4029C562.865 27.0227 563.802 28.3584 565.573 28.7939L562.918 32.7711L566.8 32.2944L569.211 28.6857L570.902 28.4781L571.303 31.7416L574.304 31.373ZM570.58 25.8577L567.46 26.2409C566.435 26.3667 565.775 25.9157 565.667 25.0344C565.553 24.1053 566.09 23.5558 567.115 23.43L570.235 23.0469L570.58 25.8577Z" fill="black"/>
<path d="M581.356 19.0215L582.746 30.3366L585.747 29.968L584.679 21.2733L589.968 20.624L591.035 29.3187L594.037 28.9502L592.647 17.6351L581.356 19.0215Z" fill="black"/>
<path d="M607.523 27.2942L606.134 15.9792L599.917 16.7426C596.796 17.1257 595.619 19.1564 595.885 21.3241C596.084 22.9439 597.022 24.2796 598.792 24.7151L596.137 28.6923L600.02 28.2156L602.43 24.6069L604.121 24.3993L604.522 27.6628L607.523 27.2942ZM603.799 21.7789L600.679 22.1621C599.655 22.2879 598.995 21.8369 598.887 20.9555C598.772 20.0265 599.309 19.477 600.334 19.3512L603.454 18.968L603.799 21.7789Z" fill="black"/>
<path d="M619.746 14.3079L608.288 15.7148L608.609 18.3351L612.826 17.8174L613.893 26.5121L616.895 26.1436L615.827 17.4489L620.067 16.9282L619.746 14.3079Z" fill="black"/>
<path d="M630.336 13.0075L630.863 17.2953L625.408 17.9651L624.881 13.6773L621.88 14.0458L623.269 25.3609L626.271 24.9923L625.73 20.5854L631.185 19.9156L631.726 24.3225L634.727 23.954L633.338 12.639L630.336 13.0075Z" fill="black"/>
<path d="M645.225 11.1795L640.65 19.0194L639.77 11.8493L636.768 12.2178L638.158 23.5328L641.159 23.1643L645.734 15.3243L646.614 22.4945L649.615 22.126L648.226 10.8109L645.225 11.1795Z" fill="black"/>
<path d="M653.046 21.7048L663.289 20.4471L663.657 23.4485L666.492 23.1005L665.802 17.4787L663.896 17.7127L662.828 9.01799L659.827 9.38652L660.895 18.0812L655.725 18.7159L654.658 10.0212L651.656 10.3898L653.046 21.7048Z" fill="black"/>
<path d="M672.086 7.56696C669.537 7.87992 667.215 9.44662 666.911 12.2888L670.008 11.9086C670.293 10.8822 671.223 10.3812 672.485 10.2261C673.914 10.0507 675.194 10.4255 675.354 11.7357L672.567 12.0779C669.923 12.4026 667.322 13.4715 667.673 16.3301C667.974 18.7837 669.812 19.9605 672.599 19.6183C674.052 19.4399 675.392 18.9368 676.124 18.0007L676.229 18.8582L679.231 18.4897L678.368 11.4625C678.008 8.53247 675.493 7.1487 672.086 7.56696ZM675.688 14.4513C675.875 15.9759 674.519 16.9404 672.899 17.1393C671.565 17.3031 670.774 16.7715 670.678 15.9854C670.563 15.0563 671.389 14.4955 672.842 14.3171L675.629 13.9749L675.688 14.4513Z" fill="black"/>
<path d="M715.956 -2.07528L716.535 2.6413C716.994 6.38121 719.331 7.88366 723.976 7.31331C724.881 7.20217 726.602 6.84573 727.579 6.53231L728.308 12.4638L731.428 12.0806L729.486 -3.7366L726.366 -3.35345L727.234 3.72142C725.932 4.14725 724.467 4.42387 723.514 4.54087C721.037 4.84505 719.895 4.21147 719.647 2.18668L719.076 -2.45844L715.956 -2.07528Z" fill="black"/>
<path d="M742.377 7.2543C741.914 8.01238 741.116 8.40061 740.163 8.5176C738.662 8.70187 737.366 7.99055 736.889 6.67077L745.608 5.60027C745.632 5.21036 745.573 4.92743 745.527 4.54629C745.117 1.21134 742.419 -1.06886 738.917 -0.638905C735.392 -0.206025 733.23 2.67084 733.646 6.05344C734.067 9.48368 736.976 11.7137 740.502 11.2808C742.956 10.9796 745.016 9.25156 745.617 6.85652L742.377 7.2543ZM736.686 4.42281C736.715 3.08925 737.876 2.10049 739.233 1.93378C740.639 1.76121 741.834 2.43658 742.188 3.74717L736.686 4.42281Z" fill="black"/>
<path d="M760.418 2.76628C760.037 -0.330464 757.542 -2.92576 753.898 -2.47825C752.635 -2.32323 751.399 -1.76034 750.73 -0.904465L750.625 -1.76202L747.623 -1.39349L749.609 14.781L752.611 14.4125L751.906 8.67162C752.762 9.3403 754.101 9.61114 755.363 9.45612C759.008 9.00862 760.798 5.86303 760.418 2.76628ZM757.416 3.13482C757.627 4.84993 756.572 6.50276 754.786 6.72212C753.19 6.91809 751.462 6.0421 751.199 3.8982C750.935 1.7543 752.403 0.510209 753.999 0.314243C755.785 0.0948785 757.203 1.39587 757.416 3.13482Z" fill="black"/>
<path d="M770.968 -4.25986L771.494 0.0279427L766.039 0.697735L765.513 -3.59007L762.511 -3.22153L763.901 8.0935L766.902 7.72496L766.361 3.31806L771.816 2.64827L772.357 7.05517L775.359 6.68664L773.969 -4.62839L770.968 -4.25986Z" fill="black"/>
<path d="M782.173 -5.95007C779.625 -5.63711 777.302 -4.0704 776.998 -1.22818L780.095 -1.60841C780.38 -2.6348 781.31 -3.13586 782.573 -3.29088C784.002 -3.46637 785.281 -3.09147 785.442 -1.78131L782.655 -1.4391C780.011 -1.11444 777.41 -0.04548 777.76 2.81305C778.062 5.26663 779.899 6.44351 782.686 6.1013C784.139 5.92289 785.48 5.41975 786.211 4.48364L786.316 5.3412L789.318 4.97267L788.455 -2.05456C788.095 -4.98456 785.58 -6.36833 782.173 -5.95007ZM785.775 0.934296C785.962 2.45885 784.606 3.42336 782.986 3.62225C781.652 3.78604 780.861 3.25444 780.765 2.46834C780.651 1.53932 781.477 0.978496 782.93 0.800079L785.717 0.45787L785.775 0.934296Z" fill="black"/>
<path d="M802.59 3.34308L801.2 -7.97194L794.983 -7.20855C791.863 -6.8254 790.685 -4.79478 790.951 -2.62706C791.15 -1.00723 792.088 0.328442 793.858 0.763947L791.203 4.74117L795.086 4.26442L797.496 0.655788L799.188 0.448124L799.588 3.71162L802.59 3.34308ZM798.866 -2.1722L795.745 -1.78904C794.721 -1.66327 794.061 -2.11422 793.953 -2.9956C793.839 -3.92462 794.376 -4.47416 795.4 -4.59993L798.521 -4.98309L798.866 -2.1722Z" fill="black"/>
<path d="M809.642 -9.00842L811.031 2.30661L814.033 1.93807L812.965 -6.75663L818.253 -7.40595L819.321 1.28875L822.322 0.920219L820.933 -10.3948L809.642 -9.00842Z" fill="black"/>
<path d="M835.809 -0.735733L834.42 -12.0508L828.202 -11.2874C825.082 -10.9042 823.904 -8.8736 824.171 -6.70588C824.37 -5.08604 825.307 -3.75037 827.078 -3.31487L824.423 0.662354L828.305 0.1856L830.716 -3.42303L832.407 -3.63069L832.808 -0.367199L835.809 -0.735733ZM832.085 -6.25101L828.965 -5.86786C827.94 -5.74209 827.28 -6.19303 827.172 -7.07441C827.058 -8.00343 827.595 -8.55298 828.619 -8.67875L831.74 -9.0619L832.085 -6.25101Z" fill="black"/>
<path d="M848.031 -13.722L836.573 -12.3152L836.895 -9.69486L841.111 -10.2126L842.179 -1.51786L845.18 -1.88639L844.113 -10.5811L848.353 -11.1017L848.031 -13.722Z" fill="black"/>
<path d="M858.622 -15.0224L859.149 -10.7346L853.694 -10.0648L853.167 -14.3526L850.166 -13.9841L851.555 -2.66909L854.556 -3.03762L854.015 -7.44453L859.47 -8.11432L860.011 -3.70742L863.013 -4.07595L861.624 -15.391L858.622 -15.0224Z" fill="black"/>
<path d="M873.51 -16.8505L868.936 -9.01054L868.055 -16.1807L865.054 -15.8122L866.443 -4.49713L869.445 -4.86566L874.019 -12.7056L874.9 -5.53546L877.901 -5.90399L876.512 -17.219L873.51 -16.8505Z" fill="black"/>
<path d="M881.331 -6.32517L891.574 -7.58286L891.943 -4.5814L894.778 -4.92946L894.087 -10.5512L892.182 -10.3173L891.114 -19.012L888.113 -18.6434L889.18 -9.94872L884.011 -9.31403L882.943 -18.0087L879.942 -17.6402L881.331 -6.32517Z" fill="black"/>
<path d="M900.372 -20.463C897.823 -20.15 895.5 -18.5833 895.197 -15.7411L898.293 -16.1213C898.578 -17.1477 899.508 -17.6488 900.771 -17.8038C902.2 -17.9793 903.479 -17.6044 903.64 -16.2942L900.853 -15.952C898.209 -15.6274 895.608 -14.5584 895.959 -11.6999C896.26 -9.2463 898.097 -8.06941 900.884 -8.41162C902.337 -8.59004 903.678 -9.09318 904.409 -10.0293L904.515 -9.17173L907.516 -9.54026L906.653 -16.5675C906.294 -19.4975 903.778 -20.8812 900.372 -20.463ZM903.974 -13.5786C904.161 -12.0541 902.804 -11.0896 901.184 -10.8907C899.85 -10.7269 899.06 -11.2585 898.963 -12.0446C898.849 -12.9736 899.675 -13.5344 901.128 -13.7128L903.915 -14.0551L903.974 -13.5786Z" fill="black"/>
<path d="M20.985 -38.7798L813.104 72.5452L807.815 110.175L15.6965 -1.14962L20.985 -38.7798Z" fill="#FCC344"/>
<path d="M1.12159 -29.3889L0.460234 -24.6831C-0.0641698 -20.9518 1.80387 -18.8958 6.43833 -18.2445C7.34145 -18.1175 9.09644 -18.0163 10.1214 -18.0662L9.28965 -12.1483L12.4031 -11.7108L14.6209 -27.4917L11.5075 -27.9292L10.5155 -20.8706C9.14783 -20.7962 7.66095 -20.9082 6.71029 -21.0418C4.23858 -21.3892 3.29974 -22.2967 3.58366 -24.3169L4.23499 -28.9513L1.12159 -29.3889Z" fill="black"/>
<path d="M24.2281 -13.5388C23.5846 -12.9264 22.7127 -12.7581 21.762 -12.8917C20.2647 -13.1022 19.1966 -14.1248 19.0781 -15.5229L27.7766 -14.3004C27.9013 -14.6706 27.9176 -14.9592 27.9711 -15.3394C28.4387 -18.6667 26.4228 -21.5675 22.9291 -22.0585C19.4117 -22.5529 16.5792 -20.3335 16.1049 -16.9586C15.624 -13.5363 17.8571 -10.6292 21.3745 -10.1348C23.8225 -9.79079 26.2603 -10.9266 27.4603 -13.0846L24.2281 -13.5388ZM19.4633 -17.7469C19.8372 -19.0273 21.2137 -19.6821 22.5684 -19.4917C23.9706 -19.2947 24.9503 -18.333 24.9534 -16.9753L19.4633 -17.7469Z" fill="black"/>
<path d="M42.8153 -13.2047C43.2495 -16.2944 41.5113 -19.447 37.8751 -19.958C36.6154 -20.135 35.2753 -19.9114 34.4079 -19.2577L34.5281 -20.1133L31.5335 -20.5342L29.2656 -4.39676L32.2601 -3.9759L33.0651 -9.70362C33.7188 -8.83621 34.942 -8.22804 36.2016 -8.05101C39.8379 -7.53997 42.381 -10.1151 42.8153 -13.2047ZM39.8207 -13.6256C39.5802 -11.9144 38.1339 -10.5908 36.3514 -10.8413C34.7591 -11.0651 33.317 -12.3584 33.6177 -14.4974C33.9183 -16.6363 35.6576 -17.4583 37.2499 -17.2345C39.0324 -16.984 40.0645 -15.3605 39.8207 -13.6256Z" fill="black"/>
<path d="M54.8246 -17.2608L54.2234 -12.9829L48.7809 -13.7478L49.3821 -18.0257L46.3876 -18.4466L44.801 -7.15752L47.7955 -6.73666L48.4135 -11.1335L53.856 -10.3686L53.2381 -5.97176L56.2326 -5.55091L57.8192 -16.84L54.8246 -17.2608Z" fill="black"/>
<path d="M66.0858 -15.9932C63.5428 -16.3506 60.8941 -15.4384 59.8649 -12.7717L62.9546 -12.3374C63.4955 -13.2551 64.5234 -13.4984 65.783 -13.3214C67.209 -13.121 68.3476 -12.4278 68.1639 -11.1206L65.3832 -11.5114C62.7451 -11.8822 59.956 -11.5228 59.5552 -8.67086C59.2111 -6.22292 60.6811 -4.61065 63.4617 -4.21986C64.9115 -4.01611 66.3367 -4.15511 67.2854 -4.87003L67.1652 -4.01443L70.1598 -3.59357L71.1451 -10.6047C71.556 -13.5279 69.4844 -15.5156 66.0858 -15.9932ZM67.7831 -8.41122C67.5693 -6.89017 66.0094 -6.30963 64.3933 -6.53676C63.0623 -6.72381 62.4362 -7.44194 62.5464 -8.22623C62.6767 -9.15313 63.6195 -9.4811 65.0693 -9.27735L67.8499 -8.88655L67.7831 -8.41122Z" fill="black"/>
<path d="M83.4012 -1.73261L84.9878 -13.0217L78.7847 -13.8934C75.6713 -14.331 74.0086 -12.6743 73.7046 -10.5116C73.4775 -8.89543 74.0376 -7.36256 75.6348 -6.48372L72.0408 -3.32921L75.9148 -2.78476L79.1768 -5.64663L80.8642 -5.40947L80.4066 -2.15347L83.4012 -1.73261ZM81.2316 -8.02378L78.1182 -8.46134C77.0963 -8.60497 76.5756 -9.21133 76.6992 -10.0907C76.8295 -11.0176 77.4904 -11.4094 78.5124 -11.2658L81.6258 -10.8282L81.2316 -8.02378Z" fill="black"/>
<path d="M93.4098 -11.838L91.8232 -0.548973L94.8178 -0.128113L96.037 -8.80286L101.313 -8.06135L100.094 0.613403L103.089 1.03426L104.675 -10.2548L93.4098 -11.838Z" fill="black"/>
<path d="M116.544 2.92533L118.131 -8.36372L111.928 -9.2355C108.814 -9.67306 107.152 -8.01635 106.848 -5.8536C106.621 -4.23749 107.181 -2.70461 108.778 -1.82577L105.184 1.32874L109.058 1.87319L112.32 -0.988674L114.007 -0.751526L113.55 2.50448L116.544 2.92533ZM114.375 -3.36583L111.261 -3.80339C110.239 -3.94702 109.719 -4.55338 109.842 -5.43274C109.972 -6.35963 110.633 -6.75146 111.655 -6.60783L114.769 -6.17027L114.375 -3.36583Z" fill="black"/>
<path d="M131.711 -6.45514L120.279 -8.06175L119.912 -5.44744L124.119 -4.85624L122.9 3.81852L125.894 4.23938L127.113 -4.43538L131.344 -3.84083L131.711 -6.45514Z" fill="black"/>
<path d="M142.278 -4.9701L141.676 -0.692139L136.234 -1.45704L136.835 -5.73499L133.841 -6.15585L132.254 5.13321L135.249 5.55407L135.867 1.15727L141.309 1.92217L140.691 6.31896L143.686 6.73982L145.272 -4.54924L142.278 -4.9701Z" fill="black"/>
<path d="M157.132 -2.8825L150.684 3.5063L151.689 -3.6474L148.695 -4.06826L147.108 7.2208L150.103 7.64166L156.551 1.25286L155.545 8.40656L158.54 8.82742L160.126 -2.46164L157.132 -2.8825Z" fill="black"/>
<path d="M161.962 9.3084L172.182 10.7447L171.761 13.7392L174.589 14.1367L175.377 8.52784L173.476 8.26062L174.695 -0.414127L171.701 -0.834988L170.481 7.83976L165.324 7.11495L166.543 -1.5598L163.549 -1.98066L161.962 9.3084Z" fill="black"/>
<path d="M184.013 0.580326C181.47 0.22293 178.821 1.13518 177.792 3.8019L180.882 4.23612C181.423 3.31848 182.45 3.07516 183.71 3.25219C185.136 3.4526 186.275 4.14581 186.091 5.45296L183.31 5.06216C180.672 4.69141 177.883 5.05073 177.482 7.9027C177.138 10.3506 178.608 11.9629 181.389 12.3537C182.839 12.5575 184.264 12.4185 185.212 11.7035L185.092 12.5591L188.087 12.98L189.072 5.96889C189.483 3.04562 187.411 1.05797 184.013 0.580326ZM185.71 8.16233C185.496 9.68339 183.936 10.2639 182.32 10.0368C180.989 9.84975 180.363 9.13162 180.473 8.34732C180.604 7.42043 181.547 7.09246 182.996 7.29621L185.777 7.687L185.71 8.16233Z" fill="black"/>
<path d="M228.883 2.62094L228.222 7.3267C227.697 11.058 229.566 13.114 234.2 13.7653C235.103 13.8923 236.858 13.9935 237.883 13.9437L237.051 19.8615L240.165 20.2991L242.383 4.51815L239.269 4.08059L238.277 11.1392C236.909 11.2136 235.423 11.1016 234.472 10.968C232 10.6206 231.061 9.71311 231.345 7.69296L231.997 3.0585L228.883 2.62094Z" fill="black"/>
<path d="M251.99 18.471C251.346 19.0834 250.474 19.2517 249.524 19.1181C248.026 18.9077 246.958 17.8851 246.84 16.4869L255.538 17.7094C255.663 17.3392 255.679 17.0507 255.733 16.6704C256.2 13.3431 254.184 10.4423 250.691 9.95131C247.173 9.45696 244.341 11.6764 243.867 15.0512C243.386 18.4736 245.619 21.3806 249.136 21.875C251.584 22.219 254.022 21.0832 255.222 18.9253L251.99 18.471ZM247.225 14.2629C247.599 12.9825 248.975 12.3277 250.33 12.5181C251.732 12.7151 252.712 13.6769 252.715 15.0345L247.225 14.2629Z" fill="black"/>
<path d="M270.577 18.8051C271.011 15.7154 269.273 12.5629 265.637 12.0518C264.377 11.8748 263.037 12.0984 262.17 12.7521L262.29 11.8965L259.295 11.4756L257.027 27.6131L260.022 28.0339L260.827 22.3062C261.48 23.1736 262.704 23.7818 263.963 23.9588C267.6 24.4698 270.143 21.8947 270.577 18.8051ZM267.582 18.3842C267.342 20.0954 265.896 21.419 264.113 21.1685C262.521 20.9447 261.079 19.6514 261.379 17.5124C261.68 15.3735 263.419 14.5515 265.012 14.7753C266.794 15.0258 267.826 16.6493 267.582 18.3842Z" fill="black"/>
<path d="M282.586 14.749L281.985 19.027L276.543 18.2621L277.144 13.9841L274.149 13.5632L272.563 24.8523L275.557 25.2732L276.175 20.8764L281.618 21.6413L281 26.038L283.994 26.4589L285.581 15.1699L282.586 14.749Z" fill="black"/>
<path d="M293.847 16.0166C291.304 15.6592 288.656 16.5714 287.627 19.2382L290.716 19.6724C291.257 18.7547 292.285 18.5114 293.545 18.6884C294.971 18.8889 296.109 19.5821 295.926 20.8892L293.145 20.4984C290.507 20.1277 287.718 20.487 287.317 23.339C286.973 25.7869 288.443 27.3992 291.223 27.79C292.673 27.9937 294.098 27.8547 295.047 27.1398L294.927 27.9954L297.921 28.4162L298.907 21.4051C299.318 18.4819 297.246 16.4942 293.847 16.0166ZM295.545 23.5986C295.331 25.1196 293.771 25.7002 292.155 25.4731C290.824 25.286 290.198 24.5679 290.308 23.7836C290.438 22.8567 291.381 22.5287 292.831 22.7325L295.612 23.1233L295.545 23.5986Z" fill="black"/>
<path d="M311.163 30.2772L312.749 18.9881L306.546 18.1164C303.433 17.6788 301.77 19.3355 301.466 21.4983C301.239 23.1144 301.799 24.6472 303.397 25.5261L299.803 28.6806L303.676 29.2251L306.938 26.3632L308.626 26.6003L308.168 29.8563L311.163 30.2772ZM308.993 23.986L305.88 23.5485C304.858 23.4048 304.337 22.7985 304.461 21.9191C304.591 20.9922 305.252 20.6004 306.274 20.744L309.387 21.1816L308.993 23.986Z" fill="black"/>
<path d="M321.171 20.1718L319.585 31.4608L322.579 31.8817L323.799 23.207L329.075 23.9485L327.856 32.6232L330.85 33.0441L332.437 21.755L321.171 20.1718Z" fill="black"/>
<path d="M344.306 34.9352L345.892 23.6461L339.689 22.7743C336.576 22.3368 334.913 23.9935 334.609 26.1562C334.382 27.7723 334.942 29.3052 336.54 30.184L332.946 33.3386L336.819 33.883L340.082 31.0211L341.769 31.2583L341.311 34.5143L344.306 34.9352ZM342.136 28.644L339.023 28.2064C338.001 28.0628 337.48 27.4564 337.604 26.5771C337.734 25.6502 338.395 25.2584 339.417 25.402L342.53 25.8395L342.136 28.644Z" fill="black"/>
<path d="M359.473 25.5547L348.041 23.9481L347.674 26.5624L351.88 27.1536L350.661 35.8283L353.656 36.2492L354.875 27.5744L359.105 28.169L359.473 25.5547Z" fill="black"/>
<path d="M370.039 27.0397L369.438 31.3177L363.996 30.5528L364.597 26.2748L361.602 25.854L360.016 37.143L363.01 37.5639L363.628 33.1671L369.071 33.932L368.453 38.3288L371.447 38.7496L373.034 27.4606L370.039 27.0397Z" fill="black"/>
<path d="M384.893 29.1273L378.445 35.5161L379.451 28.3624L376.456 27.9416L374.87 39.2306L377.864 39.6515L384.312 33.2627L383.307 40.4164L386.301 40.8372L387.888 29.5482L384.893 29.1273Z" fill="black"/>
<path d="M389.724 41.3182L399.943 42.7545L399.522 45.749L402.351 46.1465L403.139 40.5377L401.238 40.2704L402.457 31.5957L399.462 31.1748L398.243 39.8496L393.086 39.1248L394.305 30.45L391.31 30.0292L389.724 41.3182Z" fill="black"/>
<path d="M411.774 32.5901C409.231 32.2327 406.583 33.145 405.554 35.8117L408.643 36.2459C409.184 35.3283 410.212 35.085 411.472 35.262C412.898 35.4624 414.036 36.1556 413.853 37.4628L411.072 37.072C408.434 36.7012 405.645 37.0605 405.244 39.9125C404.9 42.3605 406.37 43.9727 409.15 44.3635C410.6 44.5673 412.025 44.4283 412.974 43.7133L412.854 44.5689L415.848 44.9898L416.834 37.9787C417.245 35.0554 415.173 33.0678 411.774 32.5901ZM413.472 40.1721C413.258 41.6932 411.698 42.2737 410.082 42.0466C408.751 41.8596 408.125 41.1414 408.235 40.3571C408.365 39.4302 409.308 39.1023 410.758 39.306L413.539 39.6968L413.472 40.1721Z" fill="black"/>
<path d="M456.645 34.6308L455.984 39.3365C455.459 43.0678 457.327 45.1238 461.962 45.7752C462.865 45.9021 464.62 46.0033 465.645 45.9535L464.813 51.8713L467.926 52.3089L470.144 36.528L467.031 36.0904L466.039 43.149C464.671 43.2234 463.184 43.1114 462.234 42.9778C459.762 42.6304 458.823 41.7229 459.107 39.7028L459.758 35.0683L456.645 34.6308Z" fill="black"/>
<path d="M479.751 50.4808C479.108 51.0932 478.236 51.2615 477.285 51.1279C475.788 50.9175 474.72 49.8949 474.601 48.4968L483.3 49.7193C483.425 49.349 483.441 49.0605 483.494 48.6802C483.962 45.3529 481.946 42.4521 478.452 41.9611C474.935 41.4668 472.103 43.6862 471.628 47.061C471.147 50.4834 473.38 53.3905 476.898 53.8848C479.346 54.2288 481.784 53.0931 482.984 50.9351L479.751 50.4808ZM474.987 46.2727C475.361 44.9923 476.737 44.3375 478.092 44.5279C479.494 44.725 480.474 45.6867 480.477 47.0443L474.987 46.2727Z" fill="black"/>
<path d="M498.339 50.8149C498.773 47.7253 497.035 44.5727 493.398 44.0616C492.139 43.8846 490.799 44.1083 489.931 44.7619L490.051 43.9063L487.057 43.4855L484.789 59.6229L487.783 60.0437L488.588 54.316C489.242 55.1834 490.465 55.7916 491.725 55.9686C495.361 56.4797 497.904 53.9045 498.339 50.8149ZM495.344 50.394C495.104 52.1052 493.657 53.4288 491.875 53.1783C490.282 52.9545 488.84 51.6612 489.141 49.5223C489.442 47.3833 491.181 46.5614 492.773 46.7851C494.556 47.0357 495.588 48.6591 495.344 50.394Z" fill="black"/>
<path d="M510.348 46.7588L509.747 51.0368L504.304 50.2719L504.905 45.9939L501.911 45.5731L500.324 56.8621L503.319 57.283L503.937 52.8862L509.379 53.6511L508.761 58.0479L511.756 58.4687L513.343 47.1797L510.348 46.7588Z" fill="black"/>
<path d="M521.609 48.0264C519.066 47.669 516.417 48.5812 515.388 51.248L518.478 51.6822C519.019 50.7645 520.047 50.5212 521.306 50.6983C522.732 50.8987 523.871 51.5919 523.687 52.899L520.907 52.5082C518.268 52.1375 515.479 52.4968 515.078 55.3488C514.734 57.7967 516.204 59.409 518.985 59.7998C520.435 60.0035 521.86 59.8645 522.809 59.1496L522.689 60.0052L525.683 60.4261L526.668 53.415C527.079 50.4917 525.008 48.504 521.609 48.0264ZM523.306 55.6084C523.093 57.1295 521.533 57.71 519.917 57.4829C518.586 57.2958 517.96 56.5777 518.07 55.7934C518.2 54.8665 519.143 54.5385 520.593 54.7423L523.373 55.1331L523.306 55.6084Z" fill="black"/>
<path d="M538.924 62.287L540.511 50.998L534.308 50.1262C531.195 49.6886 529.532 51.3453 529.228 53.5081C529.001 55.1242 529.561 56.6571 531.158 57.5359L527.564 60.6904L531.438 61.2349L534.7 58.373L536.388 58.6102L535.93 61.8662L538.924 62.287ZM536.755 55.9958L533.642 55.5583C532.62 55.4147 532.099 54.8083 532.223 53.9289C532.353 53.002 533.014 52.6102 534.036 52.7538L537.149 53.1914L536.755 55.9958Z" fill="black"/>
<path d="M548.933 52.1816L547.347 63.4707L550.341 63.8915L551.56 55.2168L556.836 55.9583L555.617 64.633L558.612 65.0539L560.198 53.7648L548.933 52.1816Z" fill="black"/>
<path d="M572.068 66.945L573.654 55.6559L567.451 54.7841C564.338 54.3466 562.675 56.0033 562.371 58.166C562.144 59.7821 562.704 61.315 564.301 62.1939L560.707 65.3484L564.581 65.8928L567.843 63.031L569.531 63.2681L569.073 66.5241L572.068 66.945ZM569.898 60.6538L566.785 60.2162C565.763 60.0726 565.242 59.4662 565.366 58.5869C565.496 57.66 566.157 57.2682 567.179 57.4118L570.292 57.8494L569.898 60.6538Z" fill="black"/>
<path d="M587.234 57.5645L575.803 55.9579L575.435 58.5722L579.642 59.1634L578.423 67.8381L581.417 68.259L582.637 59.5843L586.867 60.1788L587.234 57.5645Z" fill="black"/>
<path d="M597.801 59.0495L597.2 63.3275L591.757 62.5626L592.359 58.2846L589.364 57.8638L587.777 69.1528L590.772 69.5737L591.39 65.1769L596.832 65.9418L596.214 70.3386L599.209 70.7594L600.796 59.4704L597.801 59.0495Z" fill="black"/>
<path d="M612.655 61.1371L606.207 67.5259L607.213 60.3722L604.218 59.9514L602.631 71.2404L605.626 71.6613L612.074 65.2725L611.068 72.4262L614.063 72.847L615.65 61.558L612.655 61.1371Z" fill="black"/>
<path d="M617.485 73.328L627.705 74.7643L627.284 77.7589L630.112 78.1563L630.901 72.5475L628.999 72.2803L630.218 63.6055L627.224 63.1846L626.005 71.8594L620.847 71.1346L622.067 62.4598L619.072 62.039L617.485 73.328Z" fill="black"/>
<path d="M639.536 64.6C636.993 64.2426 634.344 65.1548 633.315 67.8215L636.405 68.2557C636.946 67.3381 637.974 67.0948 639.233 67.2718C640.659 67.4722 641.798 68.1654 641.614 69.4726L638.834 69.0818C636.195 68.711 633.406 69.0704 633.005 71.9223C632.661 74.3703 634.131 75.9825 636.912 76.3733C638.362 76.5771 639.787 76.4381 640.736 75.7232L640.616 76.5788L643.61 76.9996L644.595 69.9885C645.006 67.0652 642.935 65.0776 639.536 64.6ZM641.233 72.182C641.02 73.703 639.46 74.2836 637.844 74.0564C636.513 73.8694 635.887 73.1512 635.997 72.367C636.127 71.4401 637.07 71.1121 638.52 71.3158L641.3 71.7066L641.233 72.182Z" fill="black"/>
</svg>
